<?xml version="1.0" standalone="no"?>
<!DOCTYPE svg PUBLIC "-//W3C//DTD SVG 20010904//EN"
 "http://www.w3.org/TR/2001/REC-SVG-20010904/DTD/svg10.dtd">
<svg version="1.0" xmlns="http://www.w3.org/2000/svg"
 width="493.000000pt" height="493.000000pt" viewBox="0 0 493.000000 493.000000"
 preserveAspectRatio="xMidYMid meet">
<metadata>
Created by potrace 1.14, written by Peter Selinger 2001-2017
</metadata>
<g transform="translate(0.000000,493.000000) scale(0.100000,-0.100000)"
fill="#000000" stroke="none">
<path d="M1681 4879 c-43 -17 -191 -140 -241 -201 -95 -114 -134 -219 -134
-359 l1 -97 -29 10 c-16 6 -50 30 -75 54 -56 54 -99 60 -132 18 -18 -22 -21
-41 -21 -111 0 -92 22 -176 66 -245 14 -22 22 -44 17 -48 -4 -4 -31 -15 -58
-24 -71 -23 -347 -185 -405 -238 -82 -75 -88 -78 -160 -78 -46 0 -83 6 -115
20 -63 27 -107 26 -142 -4 -25 -22 -28 -30 -27 -88 1 -104 57 -208 142 -260
l32 -20 -32 -22 c-49 -32 -58 -73 -47 -198 14 -163 49 -240 155 -344 71 -70
144 -104 224 -104 50 0 50 0 50 -33 0 -18 -6 -41 -13 -52 -7 -11 -15 -36 -17
-55 -8 -65 -5 -274 6 -388 6 -66 7 -131 3 -155 -5 -23 -13 -73 -18 -112 -6
-38 -22 -104 -35 -145 -34 -99 -37 -266 -7 -333 11 -23 24 -58 31 -79 13 -42
98 -201 143 -268 17 -25 51 -67 75 -94 24 -27 65 -82 93 -121 27 -39 62 -81
79 -93 16 -12 59 -58 95 -102 81 -97 293 -263 405 -318 130 -62 354 -132 425
-132 15 0 32 -11 45 -30 18 -26 28 -30 66 -30 49 0 50 1 28 35 -14 22 -14 24
6 35 12 7 72 25 134 40 242 62 396 121 610 236 58 31 63 28 87 -58 23 -86 55
-173 87 -235 l26 -53 91 0 90 1 -32 17 c-47 25 -55 40 -113 212 -29 85 -57
163 -62 174 -14 26 9 101 36 120 11 7 30 22 41 33 11 10 54 45 95 77 146 113
328 302 467 484 22 30 54 62 70 71 15 10 35 26 43 36 8 10 42 30 75 45 43 20
79 47 127 98 37 40 75 84 85 99 25 40 35 48 79 71 49 25 77 52 112 105 23 36
27 52 27 119 0 43 4 78 9 78 5 0 24 -5 43 -12 42 -15 48 -8 29 37 -10 23 -16
67 -16 111 l0 74 27 -17 c16 -11 57 -21 103 -25 41 -3 99 -9 128 -13 41 -6 52
-5 52 6 -1 21 -40 64 -86 92 -71 44 -164 178 -164 236 0 16 13 57 29 92 65
146 62 277 -11 544 -39 141 -64 195 -136 285 -38 47 -179 175 -217 198 -7 4
-34 38 -60 75 -26 38 -69 86 -96 107 -26 21 -45 41 -41 45 9 9 -83 92 -130
116 -95 49 -240 89 -321 89 -66 0 -78 12 -104 104 -34 121 -172 215 -402 275
-63 16 -126 39 -140 51 -30 23 -125 87 -225 151 -102 64 -190 184 -167 227 5
10 35 42 66 71 53 50 56 55 39 68 -84 61 -379 -120 -430 -265 -10 -29 -23 -52
-29 -51 -10 1 -73 71 -135 151 -19 25 -51 56 -70 69 -48 33 -59 49 -60 87 0
61 -66 90 -139 61z m-22 -1514 c-40 -67 4 -112 99 -101 55 6 230 49 340 83 81
25 87 11 35 -88 -62 -114 -55 -154 28 -169 65 -12 131 4 225 55 45 25 85 45
88 45 3 0 2 -22 -1 -49 -5 -45 -3 -50 20 -66 37 -24 59 -13 160 76 48 44 94
79 101 79 19 0 123 -59 226 -129 47 -31 103 -68 124 -81 l39 -24 -7 27 c-6 25
-5 26 19 17 164 -63 276 -208 311 -406 33 -189 46 -214 86 -171 13 14 33 28
44 32 29 8 44 -35 44 -129 0 -56 -9 -96 -40 -189 -22 -66 -40 -125 -40 -133 0
-8 -13 -28 -29 -45 -41 -42 -32 -63 26 -56 62 7 57 -21 -24 -117 -40 -48 -45
-99 -11 -117 44 -24 167 10 210 58 10 10 24 34 32 53 17 42 121 152 162 173
78 39 133 26 160 -38 26 -64 16 -140 -45 -324 -36 -107 -55 -142 -104 -189
-29 -28 -46 -35 -105 -44 -77 -11 -107 -31 -118 -76 -19 -79 -155 -291 -234
-367 -23 -22 -67 -71 -98 -110 -31 -38 -66 -78 -77 -88 -31 -27 -234 -179
-360 -269 -28 -20 -99 -59 -159 -87 -97 -45 -112 -50 -125 -37 -11 12 -12 18
-3 29 14 17 6 27 -22 27 -15 0 -34 19 -61 60 -49 73 -92 98 -133 77 -39 -19
-75 -40 -92 -53 -8 -7 -58 -34 -111 -62 -53 -27 -107 -57 -120 -65 -23 -15
-28 -14 -108 38 -46 30 -90 55 -97 55 -8 0 -32 -16 -54 -36 -36 -33 -44 -36
-77 -29 -21 4 -43 11 -49 16 -6 5 -44 25 -85 45 -74 36 -161 91 -167 106 -2 4
-14 8 -27 8 -30 0 -55 -35 -55 -77 0 -18 -5 -33 -11 -33 -29 0 -250 205 -306
284 -20 28 -49 65 -63 81 -37 40 -169 254 -207 335 -51 106 -66 160 -71 253
l-4 88 50 102 c62 125 62 127 76 207 12 67 10 84 -27 255 -27 121 -32 278 -12
374 9 47 21 92 26 100 5 9 33 75 64 146 30 72 69 153 87 180 17 28 40 67 52
89 50 93 207 262 297 322 115 75 201 107 306 113 l22 1 -20 -35z"/>
<path d="M1338 2660 c-113 -11 -300 -71 -328 -107 -45 -57 -11 -81 120 -84
138 -4 270 25 388 85 48 24 52 29 52 61 0 57 -30 62 -232 45z"/>
<path d="M2658 2610 c-52 -32 14 -109 169 -197 117 -67 132 -75 168 -84 16 -4
57 -18 90 -30 141 -51 275 -74 290 -49 13 21 -8 73 -44 109 -57 57 -170 129
-246 157 -198 74 -267 94 -336 99 -46 4 -81 2 -91 -5z"/>
<path d="M1138 2256 c-65 -23 -138 -91 -138 -128 1 -36 17 -41 56 -14 37 25
64 33 64 20 0 -3 -7 -32 -15 -65 -14 -51 -14 -63 0 -101 8 -23 11 -46 7 -50
-4 -4 -29 -8 -57 -10 -42 -3 -50 -6 -50 -23 0 -21 -3 -20 167 -60 59 -14 121
-25 138 -25 35 0 101 25 112 43 10 16 -10 37 -38 37 -30 0 -38 14 -17 31 22
19 53 88 53 121 0 36 9 39 60 22 48 -17 90 -7 90 20 0 19 -114 118 -165 143
-35 18 -185 54 -218 53 -6 -1 -29 -7 -49 -14z m106 -106 c29 -11 33 -27 13
-55 -22 -29 -67 -13 -67 24 0 42 10 48 54 31z"/>
<path d="M2660 2143 c-70 -8 -231 -44 -282 -64 -54 -20 -93 -54 -82 -70 8 -14
101 -10 141 6 63 26 68 23 69 -47 0 -35 4 -73 8 -85 8 -22 6 -23 -53 -23 -53
0 -61 -2 -61 -19 0 -51 295 -131 483 -131 60 0 77 4 95 20 42 39 31 49 -65 63
-8 1 3 28 28 70 l41 68 41 -6 c23 -4 50 -11 59 -16 32 -17 48 -11 48 21 0 16
-6 34 -12 40 -15 12 -217 134 -268 162 -33 17 -95 21 -190 11z m100 -112 c0
-25 -46 -61 -78 -61 -33 0 -62 27 -62 57 0 22 3 23 70 23 62 0 70 -2 70 -19z"/>
<path d="M3866 1830 c-56 -63 -96 -150 -96 -212 0 -64 7 -76 47 -87 48 -14
102 29 103 81 0 25 -48 78 -71 78 -14 0 28 78 67 127 40 49 41 53 10 53 -15 0
-37 -15 -60 -40z m8 -212 c8 -13 6 -22 -8 -37 -35 -39 -65 -18 -52 35 8 29 42
31 60 2z"/>
<path d="M1731 1675 c-36 -8 -85 -27 -109 -42 -56 -35 -99 -105 -88 -146 11
-44 31 -42 75 6 43 46 62 56 144 76 112 27 209 7 273 -56 50 -50 74 -55 74
-17 0 32 -33 105 -57 125 -25 22 -139 59 -199 64 -27 2 -78 -2 -113 -10z"/>
<path d="M1917 1326 c-23 -35 -22 -89 2 -110 11 -10 24 -15 29 -12 5 3 110 10
233 16 190 8 226 12 236 27 7 9 11 19 8 22 -3 2 -38 10 -78 17 -39 7 -92 18
-117 24 -106 26 -139 32 -216 37 -78 5 -81 4 -97 -21z"/>
<path d="M1650 1329 c-191 -22 -241 -30 -274 -44 -47 -20 -47 -41 2 -49 20 -3
64 -11 97 -17 60 -12 231 -15 271 -5 17 5 23 16 28 57 10 73 7 74 -124 58z"/>
<path d="M2300 1148 c0 -7 9 -27 19 -44 22 -37 19 -44 -34 -69 -57 -28 -213
-32 -325 -10 -47 10 -98 20 -115 22 -56 9 -180 32 -255 48 -41 8 -97 15 -123
15 -41 0 -48 -3 -45 -17 4 -20 95 -52 223 -78 44 -9 125 -27 181 -40 169 -40
234 -48 339 -40 83 6 106 12 162 41 35 19 68 32 74 29 28 -18 -13 108 -44 133
-23 18 -57 24 -57 10z"/>
<path d="M1846 795 l-17 -35 -24 27 -23 28 -13 -28 c-10 -21 -10 -38 0 -84 7
-32 17 -66 22 -75 5 -10 9 -26 9 -37 0 -10 7 -25 16 -32 14 -11 18 -11 29 4
15 21 35 22 35 2 0 -22 29 -18 50 7 17 21 19 22 37 7 10 -9 26 -19 36 -22 15
-6 17 0 17 41 0 44 -18 113 -33 128 -4 4 -7 25 -7 46 0 32 -3 39 -17 36 -11
-2 -19 -14 -21 -31 -5 -39 -31 -32 -46 12 -15 47 -30 49 -50 6z"/>
</g>
</svg>
